<?xml version="1.0" encoding="UTF-8" standalone="no"?>
<!-- Creator: fig2dev Version 3.2.6a -->

<!-- CreationDate: 2017-12-21 17:49:27 -->

<!-- Magnification: 1.05 -->

<svg
   xmlns:dc="http://purl.org/dc/elements/1.1/"
   xmlns:cc="http://creativecommons.org/ns#"
   xmlns:rdf="http://www.w3.org/1999/02/22-rdf-syntax-ns#"
   xmlns:svg="http://www.w3.org/2000/svg"
   xmlns="http://www.w3.org/2000/svg"
   xmlns:sodipodi="http://sodipodi.sourceforge.net/DTD/sodipodi-0.dtd"
   xmlns:inkscape="http://www.inkscape.org/namespaces/inkscape"
   width="608pt"
   height="460pt"
   viewBox="2890 504 9644 7290"
   version="1.1"
   id="svg181"
   sodipodi:docname="statemachine.svg"
   inkscape:version="0.92.1 r15371">
  <metadata
     id="metadata187">
    <rdf:RDF>
      <cc:Work
         rdf:about="">
        <dc:format>image/svg+xml</dc:format>
        <dc:type
           rdf:resource="http://purl.org/dc/dcmitype/StillImage" />
        <dc:title></dc:title>
      </cc:Work>
    </rdf:RDF>
  </metadata>
  <defs
     id="defs185">
    <defs
       id="defs19">
      <clipPath
         id="cp0">
        <path
           id="path16"
           d="M 2890,504 H 12534 V 7794 H 2890 z   M 8807,6489 8867,6485 8835,6344 8822,6345z"
           clip-rule="evenodd" />
      </clipPath>
    </defs>
    <defs
       id="defs28">
      <clipPath
         id="cp1">
        <path
           id="path25"
           d="M 2890,504 H 12534 V 7794 H 2890 z   M 4331,6423 4292,6469 4416,6545 4425,6534z"
           clip-rule="evenodd" />
      </clipPath>
    </defs>
    <defs
       id="defs37">
      <clipPath
         id="cp2">
        <path
           id="path34"
           d="M 2890,504 H 12534 V 7794 H 2890 z   M 4331,6423 4292,6469 4416,6545 4425,6534z"
           clip-rule="evenodd" />
      </clipPath>
    </defs>
    <defs
       id="defs46">
      <clipPath
         id="cp3">
        <path
           id="path43"
           d="M 2890,504 H 12534 V 7794 H 2890 z   M 4451,1686 4431,1630 4304,1700 4309,1713z"
           clip-rule="evenodd" />
      </clipPath>
    </defs>
    <defs
       id="defs55">
      <clipPath
         id="cp4">
        <path
           id="path52"
           d="M 2890,504 H 12534 V 7794 H 2890 z   M 4451,1686 4431,1630 4304,1700 4309,1713z"
           clip-rule="evenodd" />
      </clipPath>
    </defs>
    <defs
       id="defs64">
      <clipPath
         id="cp5">
        <path
           id="path61"
           d="M 2890,504 H 12534 V 7794 H 2890 z   M 11044,3541 11104,3539 11077,3397 11063,3397z"
           clip-rule="evenodd" />
      </clipPath>
    </defs>
    <defs
       id="defs73">
      <clipPath
         id="cp6">
        <path
           id="path70"
           d="M 2890,504 H 12534 V 7794 H 2890 z   M 7834,3570 7894,3572 7878,3429 7865,3428z"
           clip-rule="evenodd" />
      </clipPath>
    </defs>
  </defs>
  <sodipodi:namedview
     pagecolor="#ffffff"
     bordercolor="#666666"
     borderopacity="1"
     objecttolerance="10"
     gridtolerance="10"
     guidetolerance="10"
     inkscape:pageopacity="0"
     inkscape:pageshadow="2"
     inkscape:window-width="1499"
     inkscape:window-height="807"
     id="namedview183"
     showgrid="false"
     inkscape:zoom="0.70910507"
     inkscape:cx="470.96312"
     inkscape:cy="170.96448"
     inkscape:window-x="146"
     inkscape:window-y="91"
     inkscape:window-maximized="0"
     inkscape:current-layer="svg181" />
  <circle
     style="fill:none;stroke:#000000;stroke-width:8px"
     id="circle2"
     r="636"
     cy="2250"
     cx="3600" />
  <circle
     style="fill:none;stroke:#000000;stroke-width:8px"
     id="circle4"
     r="811"
     cy="2250"
     cx="7875" />
  <circle
     style="fill:none;stroke:#000000;stroke-width:8px"
     id="circle6"
     r="811"
     cy="6975"
     cx="5400" />
  <circle
     style="fill:none;stroke:#000000;stroke-width:8px"
     id="circle8"
     r="811"
     cy="5400"
     cx="9225" />
  <circle
     style="fill:none;stroke:#000000;stroke-width:8px"
     id="circle10"
     r="811"
     cy="2250"
     cx="10800" />
  <polyline
     style="fill:none;stroke:#000000;stroke-width:8px;stroke-linejoin:bevel"
     id="polyline12"
     points=" 8775,6075 8775,6076 8776,6078 8777,6081 8779,6087 8781,6095 8784,6106 8788,6120  8792,6136 8797,6155 8802,6177 8808,6201 8813,6228 8818,6256 8823,6287 8826,6318  8829,6351 8831,6384 8832,6418 8830,6453 8827,6487 8822,6522 8814,6557 8804,6591  8790,6626 8773,6660 8752,6694 8727,6728 8697,6761 8662,6794 8622,6827 8575,6859  8522,6890 8463,6920 8397,6949 8325,6975 8265,6994 8202,7011 8137,7026 8071,7039  8004,7051 7937,7061 7869,7069 7801,7076 7734,7081 7666,7086 7599,7089 7531,7090  7464,7091 7397,7091 7331,7090 7264,7088 7198,7086 7131,7083 7065,7079 7000,7075  6935,7070 6870,7065 6806,7059 6744,7054 6682,7048 6622,7041 6564,7035 6508,7029  6455,7023 6404,7017 6356,7011 6312,7006 6272,7001 6235,6996 6202,6992 6174,6988  6149,6985 6128,6982 6112,6980 6099,6978 6089,6977 6075,6975" />
  <polygon
     style="fill:none;stroke:#000000;stroke-width:8px;stroke-miterlimit:8"
     id="polygon14"
     stroke-miterlimit="8"
     points="" />
  <polyline
     style="fill:none;stroke:#000000;stroke-width:8px;stroke-linejoin:bevel"
     id="polyline21"
     clip-path="url(#cp0)"
     points=" 4669,6750 4668,6749 4667,6748 4664,6746 4659,6742 4653,6737 4644,6730 4633,6721  4619,6709 4603,6696 4583,6680 4561,6661 4537,6641 4510,6618 4480,6592 4448,6565  4415,6535 4379,6504 4342,6470 4304,6435 4265,6399 4225,6361 4184,6321 4143,6280  4101,6238 4059,6195 4018,6150 3976,6104 3934,6057 3893,6009 3852,5959 3812,5907  3771,5854 3732,5798 3692,5741 3654,5682 3615,5620 3578,5555 3541,5489 3505,5419  3470,5347 3436,5272 3404,5194 3373,5114 3345,5033 3319,4950 3295,4863 3274,4777  3257,4691 3243,4608 3232,4527 3223,4448 3217,4371 3214,4297 3213,4225 3214,4156  3217,4088 3222,4023 3229,3960 3237,3898 3246,3837 3257,3778 3269,3721 3281,3665  3295,3610 3309,3556 3325,3503 3340,3452 3356,3403 3372,3355 3388,3308 3404,3264  3420,3222 3436,3182 3450,3145 3464,3110 3477,3078 3489,3050 3500,3024 3510,3002  3518,2983 3525,2967 3531,2954 3535,2944 3539,2936 3544,2925" />
  <polygon
     style="fill:none;stroke:#000000;stroke-width:8px;stroke-miterlimit:8"
     id="polygon23"
     stroke-miterlimit="8"
     points="8807,6489 8867,6485 8830,6367 " />
  <polyline
     style="fill:none;stroke:#000000;stroke-width:8px;stroke-linejoin:bevel"
     id="polyline30"
     clip-path="url(#cp1)"
     points=" 8136,3123 8137,3124 8139,3126 8142,3130 8147,3136 8155,3144 8165,3156 8177,3170  8192,3187 8209,3206 8228,3228 8249,3253 8272,3279 8296,3308 8321,3338 8347,3369  8374,3402 8401,3435 8429,3469 8457,3505 8485,3541 8514,3578 8542,3616 8572,3656  8601,3697 8631,3739 8661,3783 8691,3829 8722,3876 8752,3924 8782,3974 8811,4023  8844,4083 8874,4139 8900,4193 8923,4242 8943,4287 8960,4329 8974,4367 8986,4403  8996,4436 9005,4468 9012,4497 9017,4524 9022,4550 9026,4575 9029,4597 9031,4618  9033,4636 9034,4652 9035,4666 9035,4677 9036,4685 9036,4698" />
  <polygon
     style="fill:none;stroke:#000000;stroke-width:8px;stroke-miterlimit:8"
     id="polygon32"
     stroke-miterlimit="8"
     points="4331,6423 4292,6469 4403,6524 " />
  <polyline
     style="fill:none;stroke:#000000;stroke-width:8px;stroke-linejoin:bevel"
     id="polyline39"
     clip-path="url(#cp2)"
     points=" 4050,1800 4051,1800 4052,1799 4054,1798 4059,1797 4065,1795 4073,1792 4083,1788  4096,1783 4112,1777 4131,1770 4154,1762 4179,1753 4208,1742 4240,1731 4275,1718  4313,1704 4355,1689 4400,1674 4448,1657 4499,1639 4553,1620 4609,1601 4668,1581  4729,1560 4792,1539 4857,1517 4923,1495 4992,1473 5062,1450 5133,1427 5205,1405  5279,1382 5353,1359 5429,1336 5506,1314 5583,1291 5661,1269 5741,1247 5821,1226  5902,1205 5984,1184 6067,1163 6150,1143 6236,1124 6322,1104 6409,1086 6498,1068  6588,1050 6680,1033 6773,1017 6867,1002 6963,987 7061,973 7160,960 7260,948 7361,936  7464,927 7567,918 7670,910 7773,904 7875,900 8000,897 8121,896 8239,897 8353,901  8462,906 8566,914 8666,922 8761,933 8851,945 8937,958 9019,972 9097,988 9172,1005  9243,1022 9311,1041 9376,1060 9438,1080 9498,1100 9556,1122 9611,1144 9664,1166  9715,1189 9765,1212 9812,1235 9858,1259 9902,1282 9944,1305 9984,1328 10022,1351  10059,1373 10093,1395 10125,1416 10156,1436 10184,1454 10209,1472 10233,1488  10254,1503 10273,1517 10289,1529 10303,1539 10315,1548 10325,1556 10333,1562  10339,1566 10350,1575" />
  <polyline
     style="fill:none;stroke:#000000;stroke-width:8px;stroke-miterlimit:8"
     id="polyline41"
     stroke-miterlimit="8"
     points="" />
  <polyline
     style="fill:none;stroke:#000000;stroke-width:8px;stroke-linejoin:bevel"
     id="polyline48"
     clip-path="url(#cp3)"
     points=" 4275,2025 4276,2025 4278,2026 4281,2027 4287,2029 4294,2032 4305,2036 4318,2040  4334,2046 4352,2052 4373,2059 4397,2067 4423,2075 4451,2084 4482,2093 4514,2102  4548,2112 4584,2122 4622,2131 4663,2141 4705,2151 4750,2161 4797,2170 4848,2180  4902,2189 4960,2199 5023,2208 5089,2217 5161,2226 5237,2234 5317,2243 5400,2250  5471,2256 5543,2261 5614,2265 5684,2268 5752,2272 5818,2274 5882,2276 5945,2277  6005,2278 6064,2279 6122,2279 6178,2279 6233,2279 6287,2278 6339,2277 6391,2276  6442,2274 6491,2273 6539,2271 6586,2269 6631,2268 6674,2266 6715,2264 6754,2262  6790,2260 6823,2258 6853,2257 6880,2255 6903,2254 6923,2253 6939,2252 6951,2251  6961,2251 6975,2250" />
  <polygon
     style="fill:none;stroke:#000000;stroke-width:8px;stroke-miterlimit:8"
     id="polygon50"
     stroke-miterlimit="8"
     points="4451,1686 4431,1630 4328,1699 " />
  <polyline
     style="fill:none;stroke:#000000;stroke-width:8px;stroke-linejoin:bevel"
     id="polyline57"
     clip-path="url(#cp4)"
     points=" 11036,3131 11036,3132 11037,3134 11037,3137 11038,3143 11040,3151 11042,3162  11044,3175 11047,3192 11050,3211 11053,3232 11057,3256 11060,3283 11063,3311  11066,3341 11069,3372 11070,3404 11071,3436 11071,3469 11070,3501 11067,3533  11063,3564 11057,3595 11050,3624 11040,3653 11028,3679 11013,3704 10995,3728  10973,3749 10949,3768 10920,3784 10887,3798 10849,3809 10807,3817 10760,3820  10707,3820 10649,3815 10586,3806 10533,3795 10478,3781 10422,3765 10364,3747  10306,3726 10248,3704 10189,3680 10130,3654 10071,3628 10013,3600 9955,3571 9896,3541  9838,3510 9781,3478 9723,3446 9665,3412 9608,3379 9551,3344 9494,3309 9437,3274  9381,3239 9325,3203 9270,3167 9215,3131 9161,3095 9108,3060 9057,3026 9007,2992  8958,2959 8912,2927 8868,2897 8826,2868 8787,2841 8751,2816 8718,2792 8689,2772  8662,2753 8639,2737 8620,2723 8603,2711 8590,2702 8580,2694 8572,2689 8561,2681 " />
  <polyline
     style="fill:none;stroke:#000000;stroke-width:8px;stroke-miterlimit:8"
     id="polyline59"
     stroke-miterlimit="8"
     points="" />
  <polyline
     style="fill:none;stroke:#000000;stroke-width:8px;stroke-linejoin:bevel"
     id="polyline66"
     clip-path="url(#cp5)"
     points=" 7875,3150 7875,3151 7875,3152 7875,3155 7875,3160 7876,3167 7876,3177 7876,3189  7876,3204 7876,3222 7876,3244 7876,3268 7876,3296 7875,3326 7874,3360 7873,3396  7871,3435 7869,3476 7866,3520 7863,3565 7858,3612 7853,3661 7847,3711 7840,3762  7832,3814 7822,3867 7811,3920 7799,3975 7785,4029 7769,4085 7751,4141 7732,4197  7710,4254 7685,4311 7658,4369 7629,4428 7596,4487 7560,4547 7520,4608 7477,4670  7429,4732 7378,4795 7322,4859 7261,4922 7196,4986 7127,5050 7053,5113 6975,5175  6903,5228 6829,5280 6753,5329 6676,5376 6599,5421 6521,5464 6444,5504 6366,5542  6289,5578 6212,5611 6136,5643 6060,5673 5985,5701 5910,5727 5835,5751 5761,5775  5687,5796 5613,5817 5540,5836 5467,5854 5395,5871 5323,5888 5251,5903 5180,5917  5110,5931 5040,5943 4971,5955 4903,5967 4837,5977 4771,5987 4708,5997 4646,6006  4586,6014 4529,6021 4474,6028 4422,6035 4374,6041 4328,6046 4286,6051 4247,6055  4212,6059 4181,6062 4153,6065 4130,6067 4109,6069 4093,6071 4079,6072 4069,6073  4061,6074 4050,6075" />
  <polygon
     style="fill:none;stroke:#000000;stroke-width:8px;stroke-miterlimit:8"
     id="polygon68"
     stroke-miterlimit="8"
     points="11044,3541 11104,3539 11071,3420 " />
  <polyline
     style="fill:none;stroke:#000000;stroke-width:8px;stroke-linejoin:bevel"
     id="polyline75"
     clip-path="url(#cp6)"
     points=" 8325,5400 8325,5401 8324,5402 8324,5404 8323,5407 8322,5411 8320,5416 8317,5422  8314,5429 8310,5438 8305,5447 8299,5457 8292,5468 8283,5480 8273,5493 8262,5506  8249,5519 8234,5534 8216,5548 8197,5563 8175,5578 8151,5593 8123,5609 8092,5624  8058,5640 8019,5656 7976,5673 7928,5689 7874,5706 7815,5723 7749,5741 7676,5759  7595,5777 7508,5795 7412,5814 7309,5832 7200,5850 7122,5862 7043,5873 6962,5885  6881,5895 6799,5906 6716,5915 6634,5925 6553,5933 6471,5942 6390,5950 6310,5957  6231,5964 6152,5971 6073,5978 5995,5984 5918,5989 5841,5995 5764,6000 5688,6005  5613,6010 5538,6014 5463,6018 5389,6022 5315,6026 5242,6030 5170,6033 5098,6037  5027,6040 4958,6043 4889,6046 4822,6048 4757,6051 4693,6054 4632,6056 4573,6058  4516,6060 4462,6062 4411,6064 4363,6065 4318,6067 4277,6068 4240,6069 4206,6070  4176,6071 4149,6072 4126,6073 4107,6073 4091,6074 4078,6074 4068,6074 4061,6075  4050,6075" />
  <polygon
     style="fill:none;stroke:#000000;stroke-width:8px;stroke-miterlimit:8"
     id="polygon77"
     stroke-miterlimit="8"
     points="7834,3570 7894,3572 7870,3451 " />
  <text
     style="font-style:normal;font-weight:normal;font-size:144px;font-family:Helvetica;text-anchor:middle;fill:#000000"
     id="text79"
     font-size="144"
     font-weight="normal"
     font-style="normal"
     y="810"
     x="4905"
     xml:space="preserve">Autoklavier Zustandsmaschine PIC Software</text>
  <text
     style="font-style:normal;font-weight:bold;font-size:144px;font-family:Helvetica;text-anchor:middle;fill:#000000"
     id="text81"
     font-size="144"
     font-weight="bold"
     font-style="normal"
     y="2025"
     x="3600"
     xml:space="preserve">Note aus</text>
  <text
     style="font-style:normal;font-weight:bold;font-size:144px;font-family:Helvetica;text-anchor:middle;fill:#000000"
     id="text83"
     font-size="144"
     font-weight="bold"
     font-style="normal"
     y="2250"
     x="3600"
     xml:space="preserve">(init)</text>
  <text
     style="font-style:normal;font-weight:bold;font-size:144px;font-family:Helvetica;text-anchor:middle;fill:#000000"
     id="text85"
     font-size="144"
     font-weight="bold"
     font-style="normal"
     y="2250"
     x="7875"
     xml:space="preserve">Note neu</text>
  <text
     style="font-style:normal;font-weight:bold;font-size:144px;font-family:Helvetica;text-anchor:middle;fill:#000000"
     id="text87"
     font-size="144"
     font-weight="bold"
     font-style="normal"
     y="6975"
     x="5400"
     xml:space="preserve">Note halten</text>
  <text
     style="font-style:normal;font-weight:bold;font-size:144px;font-family:Helvetica;text-anchor:middle;fill:#000000"
     id="text89"
     font-size="144"
     font-weight="bold"
     font-style="normal"
     y="5625"
     x="9225"
     xml:space="preserve">Anschlag</text>
  <text
     style="font-style:normal;font-weight:bold;font-size:144px;font-family:Helvetica;text-anchor:middle;fill:#000000"
     id="text91"
     font-size="144"
     font-weight="bold"
     font-style="normal"
     y="5175"
     x="9225"
     xml:space="preserve">Note</text>
  <text
     style="font-style:normal;font-weight:normal;font-size:144px;font-family:Helvetica;text-anchor:middle;fill:#000000"
     id="text93"
     font-size="144"
     font-weight="normal"
     font-style="normal"
     y="3825"
     x="8100"
     xml:space="preserve">neubit-&gt;0</text>
  <text
     style="font-style:normal;font-weight:normal;font-size:144px;font-family:Helvetica;text-anchor:middle;fill:#000000"
     id="text95"
     font-size="144"
     font-weight="normal"
     font-style="normal"
     y="4050"
     x="8325"
     xml:space="preserve">onbit-&gt;1</text>
  <text
     style="font-style:normal;font-weight:normal;font-size:144px;font-family:Helvetica;text-anchor:middle;fill:#000000"
     id="text97"
     font-size="144"
     font-weight="normal"
     font-style="normal"
     y="4275"
     x="8550"
     xml:space="preserve">Port-&gt;1</text>
  <text
     style="font-style:normal;font-weight:normal;font-size:144px;font-family:Helvetica;text-anchor:middle;fill:#000000"
     id="text99"
     font-size="144"
     font-weight="normal"
     font-style="normal"
     y="7200"
     x="4050"
     xml:space="preserve">halte_bit=1</text>
  <text
     style="font-style:normal;font-weight:normal;font-size:144px;font-family:Helvetica;text-anchor:middle;fill:#000000"
     id="text101"
     font-size="144"
     font-weight="normal"
     font-style="normal"
     y="6750"
     x="9900"
     xml:space="preserve">haltebit=0</text>
  <text
     style="font-style:normal;font-weight:normal;font-size:144px;font-family:Helvetica;text-anchor:middle;fill:#000000"
     id="text103"
     font-size="144"
     font-weight="normal"
     font-style="normal"
     y="3825"
     x="9225"
     xml:space="preserve">neubit==1</text>
  <text
     style="font-style:normal;font-weight:normal;font-size:144px;font-family:Helvetica;text-anchor:middle;fill:#000000"
     id="text105"
     font-size="144"
     font-weight="normal"
     font-style="normal"
     y="6525"
     x="9900"
     xml:space="preserve">(neubit=0)</text>
  <text
     style="font-style:normal;font-weight:normal;font-size:144px;font-family:Helvetica;text-anchor:middle;fill:#000000"
     id="text107"
     font-size="144"
     font-weight="normal"
     font-style="normal"
     y="4950"
     x="3825"
     xml:space="preserve">onbit-&gt;0</text>
  <text
     style="font-style:normal;font-weight:normal;font-size:144px;font-family:Helvetica;text-anchor:middle;fill:#000000"
     id="text109"
     font-size="144"
     font-weight="normal"
     font-style="normal"
     y="5175"
     x="3825"
     xml:space="preserve">neubit-&gt;0</text>
  <text
     style="font-style:normal;font-weight:normal;font-size:144px;font-family:Helvetica;text-anchor:middle;fill:#000000"
     id="text111"
     font-size="144"
     font-weight="normal"
     font-style="normal"
     y="6750"
     x="8100"
     xml:space="preserve">puls==0</text>
  <text
     style="font-style:normal;font-weight:normal;font-size:144px;font-family:Helvetica;text-anchor:middle;fill:#000000"
     id="text113"
     font-size="144"
     font-weight="normal"
     font-style="normal"
     y="6300"
     x="9900"
     xml:space="preserve">onbit=1(puls--)</text>
  <text
     style="font-style:normal;font-weight:normal;font-size:144px;font-family:Helvetica;text-anchor:middle;fill:#000000"
     id="text115"
     font-size="144"
     font-weight="normal"
     font-style="normal"
     y="7200"
     x="7650"
     xml:space="preserve">haltebit-&gt;1</text>
  <text
     style="font-style:normal;font-weight:normal;font-size:144px;font-family:Helvetica;text-anchor:middle;fill:#000000"
     id="text117"
     font-size="144"
     font-weight="normal"
     font-style="normal"
     y="4500"
     x="4275"
     xml:space="preserve">serieller empfang noteoff</text>
  <text
     style="font-style:normal;font-weight:normal;font-size:144px;font-family:Helvetica;text-anchor:middle;fill:#000000"
     id="text119"
     font-size="144"
     font-weight="normal"
     font-style="normal"
     y="5625"
     x="4275"
     xml:space="preserve">pulsbit-&gt;0</text>
  <text
     style="font-style:normal;font-weight:normal;font-size:144px;font-family:Helvetica;text-anchor:middle;fill:#000000"
     id="text121"
     font-size="144"
     font-weight="normal"
     font-style="normal"
     y="5400"
     x="4050"
     xml:space="preserve">haltebit-&gt;0</text>
  <text
     style="font-style:normal;font-weight:normal;font-size:144px;font-family:Helvetica;text-anchor:middle;fill:#000000"
     id="text123"
     font-size="144"
     font-weight="normal"
     font-style="normal"
     y="2700"
     x="4500"
     xml:space="preserve">on_bit=0</text>
  <text
     style="font-style:normal;font-weight:normal;font-size:144px;font-family:Helvetica;text-anchor:middle;fill:#000000"
     id="text125"
     font-size="144"
     font-weight="normal"
     font-style="normal"
     y="2925"
     x="4500"
     xml:space="preserve">pulsbit=0</text>
  <text
     style="font-style:normal;font-weight:normal;font-size:144px;font-family:Helvetica;text-anchor:middle;fill:#000000"
     id="text127"
     font-size="144"
     font-weight="normal"
     font-style="normal"
     y="3150"
     x="4500"
     xml:space="preserve">neubit=0</text>
  <text
     style="font-style:normal;font-weight:normal;font-size:144px;font-family:Helvetica;text-anchor:middle;fill:#000000"
     id="text129"
     font-size="144"
     font-weight="normal"
     font-style="normal"
     y="3375"
     x="4500"
     xml:space="preserve">haltebit=0</text>
  <text
     style="font-style:normal;font-weight:normal;font-size:144px;font-family:Helvetica;text-anchor:middle;fill:#000000"
     id="text131"
     font-size="144"
     font-weight="normal"
     font-style="normal"
     y="3600"
     x="4500"
     xml:space="preserve">Port=0</text>
  <text
     style="font-style:normal;font-weight:normal;font-size:144px;font-family:Helvetica;text-anchor:middle;fill:#000000"
     id="text133"
     font-size="144"
     font-weight="normal"
     font-style="normal"
     y="5850"
     x="4275"
     xml:space="preserve">Port-&gt;0</text>
  <text
     style="font-style:normal;font-weight:normal;font-size:144px;font-family:Helvetica;text-anchor:middle;fill:#000000"
     id="text135"
     font-size="144"
     font-weight="normal"
     font-style="normal"
     y="7425"
     x="4050"
     xml:space="preserve">onbit=1(puls--)</text>
  <text
     style="font-style:normal;font-weight:normal;font-size:144px;font-family:Helvetica;text-anchor:middle;fill:#000000"
     id="text137"
     font-size="144"
     font-weight="normal"
     font-style="normal"
     y="7650"
     x="4050"
     xml:space="preserve">Port=haltepuls</text>
  <text
     style="font-style:normal;font-weight:bold;font-size:144px;font-family:Helvetica;text-anchor:middle;fill:#000000"
     id="text139"
     font-size="144"
     font-weight="bold"
     font-style="normal"
     y="2025"
     x="10800"
     xml:space="preserve">Note neu</text>
  <text
     style="font-style:normal;font-weight:bold;font-size:144px;font-family:Helvetica;text-anchor:middle;fill:#000000"
     id="text141"
     font-size="144"
     font-weight="bold"
     font-style="normal"
     y="2475"
     x="10800"
     xml:space="preserve">Synchron</text>
  <text
     style="font-style:normal;font-weight:bold;font-size:144px;font-family:Helvetica;text-anchor:middle;fill:#000000"
     id="text143"
     font-size="144"
     font-weight="bold"
     font-style="normal"
     y="2475"
     x="7875"
     xml:space="preserve">asynchron</text>
  <text
     style="font-style:normal;font-weight:normal;font-size:144px;font-family:Helvetica;text-anchor:middle;fill:#000000"
     id="text145"
     font-size="144"
     font-weight="normal"
     font-style="normal"
     y="2475"
     x="11925"
     xml:space="preserve">onbit=0</text>
  <text
     style="font-style:normal;font-weight:normal;font-size:144px;font-family:Helvetica;text-anchor:middle;fill:#000000"
     id="text147"
     font-size="144"
     font-weight="normal"
     font-style="normal"
     y="2925"
     x="11925"
     xml:space="preserve">haltebit=0</text>
  <text
     style="font-style:normal;font-weight:normal;font-size:144px;font-family:Helvetica;text-anchor:middle;fill:#000000"
     id="text149"
     font-size="144"
     font-weight="normal"
     font-style="normal"
     y="2700"
     x="6075"
     xml:space="preserve">neubit-&gt;1</text>
  <text
     style="font-style:normal;font-weight:normal;font-size:144px;font-family:Helvetica;text-anchor:middle;fill:#000000"
     id="text151"
     font-size="144"
     font-weight="normal"
     font-style="normal"
     y="2025"
     x="5850"
     xml:space="preserve">seriell empfangen noteon</text>
  <text
     style="font-style:normal;font-weight:normal;font-size:144px;font-family:Helvetica;text-anchor:middle;fill:#000000"
     id="text153"
     font-size="144"
     font-weight="normal"
     font-style="normal"
     y="2475"
     x="6075"
     xml:space="preserve">velo-&gt;puls</text>
  <text
     style="font-style:normal;font-weight:normal;font-size:144px;font-family:Helvetica;text-anchor:middle;fill:#000000"
     id="text155"
     font-size="144"
     font-weight="normal"
     font-style="normal"
     y="675"
     x="8325"
     xml:space="preserve">seriell empfangen noteon</text>
  <text
     style="font-style:normal;font-weight:normal;font-size:144px;font-family:Helvetica;text-anchor:middle;fill:#000000"
     id="text157"
     font-size="144"
     font-weight="normal"
     font-style="normal"
     y="2025"
     x="5850"
     xml:space="preserve">seriell empfangen noteon</text>
  <text
     style="font-style:normal;font-weight:normal;font-size:144px;font-family:Helvetica;text-anchor:middle;fill:#000000"
     id="text159"
     font-size="144"
     font-weight="normal"
     font-style="normal"
     y="2250"
     x="5850"
     xml:space="preserve">synchronmode</text>
  <text
     style="font-style:normal;font-weight:normal;font-size:144px;font-family:Helvetica;text-anchor:middle;fill:#000000"
     id="text161"
     font-size="144"
     font-weight="normal"
     font-style="normal"
     y="900"
     x="9675"
     xml:space="preserve">synchronplay</text>
  <text
     style="font-style:normal;font-weight:normal;font-size:144px;font-family:Helvetica;text-anchor:middle;fill:#000000"
     id="text163"
     font-size="144"
     font-weight="normal"
     font-style="normal"
     y="1125"
     x="8325"
     xml:space="preserve">velo-&gt;puls</text>
  <text
     style="font-style:normal;font-weight:normal;font-size:144px;font-family:Helvetica;text-anchor:middle;fill:#000000"
     id="text165"
     font-size="144"
     font-weight="normal"
     font-style="normal"
     y="2700"
     x="11925"
     xml:space="preserve">neubit=0</text>
  <text
     style="font-style:normal;font-weight:normal;font-size:144px;font-family:Helvetica;text-anchor:middle;fill:#000000"
     id="text167"
     font-size="144"
     font-weight="normal"
     font-style="normal"
     y="4050"
     x="11250"
     xml:space="preserve">seriell empfangen synchpuls</text>
  <text
     style="font-style:normal;font-weight:normal;font-size:144px;font-family:Helvetica;text-anchor:middle;fill:#000000"
     id="text169"
     font-size="144"
     font-weight="normal"
     font-style="normal"
     y="3150"
     x="7200"
     xml:space="preserve">onbit=0</text>
  <text
     style="font-style:normal;font-weight:normal;font-size:144px;font-family:Helvetica;text-anchor:middle;fill:#000000"
     id="text171"
     font-size="144"
     font-weight="normal"
     font-style="normal"
     y="3375"
     x="7200"
     xml:space="preserve">neubit=1</text>
  <text
     style="font-style:normal;font-weight:normal;font-size:144px;font-family:Helvetica;text-anchor:middle;fill:#000000"
     id="text173"
     font-size="144"
     font-weight="normal"
     font-style="normal"
     y="3600"
     x="7200"
     xml:space="preserve">haltebit=0</text>
  <text
     style="font-style:normal;font-weight:normal;font-size:144px;font-family:Helvetica;text-anchor:middle;fill:#000000"
     id="text175"
     font-size="144"
     font-weight="normal"
     font-style="normal"
     y="3600"
     x="10575"
     xml:space="preserve">neubit-&gt;1</text>
  <text
     style="font-style:normal;font-weight:normal;font-size:144px;font-family:Helvetica;text-anchor:middle;fill:#000000"
     id="text177"
     font-size="144"
     font-weight="normal"
     font-style="normal"
     y="4275"
     x="11250"
     xml:space="preserve">und ( puls &gt; 0 )</text>
</svg>
